inDegrees=no
num_controls=7
num_derivatives=13
num_iterations=114
num_multipliers=7
num_parameters=0
num_slacks=7
num_states=26
objective=5.436661
objective_accelerations=0.536062
objective_balance=0.119181
objective_effort=0.372379
objective_height=4.388541
objective_ligament=0.020498
solver_duration=1305.980104
status=Solve_Succeeded
success=true
DataType=double
version=3
OpenSimVersion=4.4-2022-07-23-0e9fedc
endheader
time	/jointset/ground_pelvis/pelvis_tilt/value	/jointset/ground_pelvis/pelvis_tx/value	/jointset/ground_pelvis/pelvis_ty/value	/jointset/hip_l/hip_flexion_l/value	/jointset/hip_l/hip_adduction_l/value	/jointset/hip_l/hip_rotation_l/value	/jointset/back/lumbar_extension/value	/jointset/patellofemoral_l/patellar_flexion_l/value	/jointset/knee_l/knee_flexion_l/value	/jointset/knee_l/knee_adduction_l/value	/jointset/knee_l/knee_rotation_l/value	/jointset/ankle_l/ankle_angle_l/value	/jointset/subtalar_l/subtalar_angle_l/value	/jointset/ground_pelvis/pelvis_tilt/speed	/jointset/ground_pelvis/pelvis_tx/speed	/jointset/ground_pelvis/pelvis_ty/speed	/jointset/hip_l/hip_flexion_l/speed	/jointset/hip_l/hip_adduction_l/speed	/jointset/hip_l/hip_rotation_l/speed	/jointset/back/lumbar_extension/speed	/jointset/patellofemoral_l/patellar_flexion_l/speed	/jointset/knee_l/knee_flexion_l/speed	/jointset/knee_l/knee_adduction_l/speed	/jointset/knee_l/knee_rotation_l/speed	/jointset/ankle_l/ankle_angle_l/speed	/jointset/subtalar_l/subtalar_angle_l/speed	/forceset/tau_hip_flexion_l	/forceset/tau_hip_adduction_l	/forceset/tau_hip_rotation_l	/forceset/tau_knee_flexion_l	/forceset/tau_ankle_angle_l	/forceset/tau_subtalar_angle_l	/forceset/tau_lumbar_extension	lambda_cid13_p0	lambda_cid13_p1	lambda_cid13_p2	lambda_cid13_p3	lambda_cid13_p4	lambda_cid13_p5	lambda_cid14_p0	/jointset/ground_pelvis/pelvis_tilt/accel	/jointset/ground_pelvis/pelvis_tx/accel	/jointset/ground_pelvis/pelvis_ty/accel	/jointset/hip_l/hip_flexion_l/accel	/jointset/hip_l/hip_adduction_l/accel	/jointset/hip_l/hip_rotation_l/accel	/jointset/back/lumbar_extension/accel	/jointset/patellofemoral_l/patellar_flexion_l/accel	/jointset/knee_l/knee_flexion_l/accel	/jointset/knee_l/knee_adduction_l/accel	/jointset/knee_l/knee_rotation_l/accel	/jointset/ankle_l/ankle_angle_l/accel	/jointset/subtalar_l/subtalar_angle_l/accel	gamma_cid13_p0	gamma_cid13_p1	gamma_cid13_p2	gamma_cid13_p3	gamma_cid13_p4	gamma_cid13_p5	gamma_cid14_p0
1	-0.5224578540257668	-0.0504881623283602	0.6434338785603186	1.688131036127419	-0.2906404699071933	0.1478390042650854	-0.4363266557592513	1.219925643699532	1.21992564370134	-0.1744985518264599	0.174521210555183	0.2594181593249825	0.01426409551895822	-0.009841253999706871	0.0003466777624601325	-0.002875351826189385	0.01500842051085882	0.0005023888146443527	0.002505092862049883	0.0002277507152960336	0.006881724606487344	0.006881724606487378	-1.284997289816796e-05	4.205127135156282e-06	0.002154678360023424	0.001073652775397607	-0.3665130090454997	0.02980265909027126	-0.01860180874213395	-0.2726741179773871	0.005395269942260646	0.03193340443444685	0.3128811679820112	-42.48380970482015	-6.680808369869582	0.9490877786640339	15.73796688328172	-714.0842383260803	-45.8037024424224	-0.484762497106737	1.45348481185807	0.08151330765456473	1.48634763214082	-5.314035934007482	-0.3645928880521935	-1.700641296032837	-0.0318045302234036	-4.764187816354831	-4.764187816355107	-0.04818347481744183	0.01306630208938396	-1.19699735271519	-0.6929163569893246	1.594121355951305e-09	1.379211979270379e-09	-4.290386148575916e-09	-2.805426822321202e-09	2.084700002407718e-09	-1.62340458521574e-09	6.974860342768358e-10
1.01	-0.5224841965613191	-0.05048067357472475	0.6434792880195228	1.688016408730915	-0.2906528409060208	0.1477779512615273	-0.4363253560694123	1.219756719314572	1.219756719315089	-0.1744987474347259	0.1745211890106763	0.2593801087126432	0.01424132332384555	0.004563104524798502	0.001149159500135242	0.01195121252773112	-0.03791064595425789	-0.00297470206551923	-0.01471361121689364	3.358843700266254e-05	-0.04065762590252911	-0.04065762590252482	-2.501791986346912e-05	-7.389451922652207e-06	-0.009769561239006705	-0.005626355457384446	-0.3663040476605026	0.02981531052457367	-0.01861026252386327	-0.2725653903511884	0.005421066072890967	0.03195402753654412	0.3127105047363942	-42.45862267213693	-6.697512061394324	0.9555626725555779	15.72431402210971	-713.8179607500516	-45.82281834303186	-0.4871012219182513	1.432464769321323	0.0793289489205002	1.479905084352082	-5.277354297724503	-0.3389881320878185	-1.732177370396644	-0.01301190491448613	-4.74746117870457	-4.747461178704321	0.02245238753606254	-0.008109913526965726	-1.190851112955309	-0.658284476314401	-2.991875146164025e-09	-1.010604287861002e-08	2.904568781239981e-08	1.764939031955327e-09	-5.333324808655274e-09	7.468591725950164e-09	-5.610247123961653e-09
1.02	-0.5223667848322632	-0.05046521733529467	0.6436727819717336	1.687373288210789	-0.2906999270024741	0.1475447727359646	-0.4363259559676863	1.219112670922404	1.219112670921692	-0.1744990275537126	0.1745210840053331	0.2592226729344296	0.01415160276242591	0.01890959891222188	0.001940174921384681	0.02674154677517895	-0.09069020421786698	-0.006440630709317347	-0.03192001155865565	-0.0001521669725923743	-0.08814307683270389	-0.08814307683269647	-2.97521799301273e-05	-1.248705591286245e-05	-0.02172235481635762	-0.01231602048583376	-0.366095086275518	0.02982796195906555	-0.01861871630675461	-0.27245666272486	0.005446862203612974	0.03197465063891333	0.3125398414907429	-42.44298062521854	-6.711167916222264	0.9599788756810166	15.75477108755841	-713.6727477409327	-45.80622153928364	-0.4960324696389689	1.44191198444191	0.07922004436926826	1.479101610846244	-5.286134293705882	-0.3623604407790513	-1.698180548596568	-0.03012315648411126	-4.753407900586461	-4.753407900586959	-0.04669673743760147	0.01436569710285042	-1.202708148379611	-0.6908477161227814	-7.972064026024456e-09	-2.107097617725821e-08	6.159335072137422e-08	7.416211572108015e-09	-1.321916268867984e-08	1.661752206484014e-08	-1.159886985835949e-08
1.03	-0.5221059437881621	-0.05044179964367069	0.6440140249969178	1.686202685981489	-0.290781581518687	0.1471396530542636	-0.4363281564002488	1.217994047951279	1.217994047950512	-0.174499355809556	0.1745209436284764	0.2589457122831177	0.01399513235409657	0.03327454438144384	0.00275233167848242	0.04150376808595418	-0.1434456298867403	-0.009884520814577108	-0.04909824061916487	-0.0002651477018336246	-0.1355713336320118	-0.1355713336320137	-3.562583256344132e-05	-1.554118384468945e-05	-0.03365974690306436	-0.01896633154730199	-0.3661659917621795	0.0299291163358173	-0.01864853446868077	-0.2721005878463958	0.005469590510087078	0.03207898343532136	0.3126870299915757	-42.42515853921057	-6.770456961457524	0.981832437908398	15.64012561178935	-713.6180242942677	-45.83889454213001	-0.5117774022202947	1.436175443455175	0.08356138199138813	1.47428459489184	-5.272556024975885	-0.334552962952668	-1.72680700535835	0.001530247579214833	-4.736003452159142	-4.736003452160513	0.02250104072242975	-0.007654257739104412	-1.187750278741774	-0.650369448657632	-1.295627527708637e-08	-3.203060007224076e-08	9.413296861961389e-08	1.307851377232067e-08	-2.110977417144892e-08	2.57670333631967e-08	-1.758423636394262e-08
1.04	-0.5217009753662728	-0.05040999080635461	0.6445027906759496	1.68450406763121	-0.290897504869468	0.1465629184979087	-0.4363308034843773	1.216401448635641	1.216401448634869	-0.1744997360577259	0.1745207700523874	0.258549678602959	0.01377250950565223	0.04773507446233072	0.003618404059805241	0.05624607754477728	-0.1962934284155796	-0.01329439762200839	-0.0662429865028504	-0.0002414972821465367	-0.1829383457335512	-0.1829383457335559	-4.015068924704212e-05	-1.912691168359988e-05	-0.04553696058678525	-0.02554650850872199	-0.366236897248888	0.03003027071269326	-0.018678352631451	-0.2717445129678347	0.005492318816631197	0.03218331623191014	0.3128342184923464	-42.4168778739566	-6.82673551053974	1.001675204931783	15.56907864993177	-713.6843482323502	-45.83631090973375	-0.5346595977035568	1.461028906775253	0.09000316921404462	1.475119240455755	-5.304608865698965	-0.3555577812132613	-1.69148391323194	-0.002796926697464872	-4.74115896103268	-4.741158961031931	-0.04642697824741123	0.01425937712134993	-1.190672467782823	-0.6768208961131156	-1.756550231302959e-08	-4.458051717320947e-08	1.252972189566892e-07	1.735692576508264e-08	-2.822340849720091e-08	3.239650130933003e-08	-2.353085431151087e-08
1.05	-0.5211513755517411	-0.05036921531771465	0.6451387905812579	1.682277012639966	-0.2910473269705205	0.1458149862566405	-0.4363316475637108	1.21433551757308	1.214335517572737	-0.1745002139233789	0.1745205458083454	0.2580351526027966	0.01348448121425956	0.06215539047578137	0.004549372105296048	0.07094166503405441	-0.2490824825228327	-0.016660719891343	-0.08333437704773966	0.0001844336285089637	-0.2302341112632002	-0.2302341112632641	-5.589908940450755e-05	-2.586241822815463e-05	-0.05735996053037839	-0.0320420277501496	-0.3663622056674116	0.03019165634748115	-0.01872889617905879	-0.2711554765453104	0.005547031467395343	0.03236137251142433	0.313131345316345	-42.38569461821737	-6.927650969093911	1.038467941062075	15.38761056210762	-713.6471147065066	-45.88398881929184	-0.565208222619461	1.428107254342684	0.09654974816090368	1.464935596380977	-5.260792468738892	-0.3257945831591474	-1.716630121478782	0.08205091934231556	-4.721716066141816	-4.721716066151246	0.02076728804749302	-0.008194804608600325	-1.176871821242299	-0.6333585998035836	-2.216301109225035e-08	-5.718013093686522e-08	1.564184890574782e-07	2.159209118886178e-08	-3.531276228679611e-08	3.89472179007064e-08	-2.947626136664115e-08
1.06	-0.5204584577159161	-0.05031874892343135	0.6459213777801021	1.679523119350587	-0.2912305373209352	0.1448964074106403	-0.4363248797694556	1.211797042711781	1.211797042711833	-0.1745008660612594	0.1745202432512125	0.2574026449904799	0.01313200949812323	0.07639867871774407	0.005556585188472706	0.08556353625205222	-0.3016610880501119	-0.01997204749530306	-0.100372307447073	0.001280877314950813	-0.2774471054812813	-0.277447105481407	-7.500513168467191e-05	-3.478952742043561e-05	-0.06913328301776579	-0.03843519345742517	-0.3664875140857914	0.03035304198225838	-0.01877943972658112	-0.270566440122799	0.005601744118133578	0.03253942879091817	0.3134284721405008	-42.36403402021256	-7.02563366066303	1.073347311433062	15.24837655091794	-713.7309520871075	-45.89728653953639	-0.6040442336661376	1.425623352478073	0.1052521767509227	1.460375986199815	-5.262519149704052	-0.3445588481382336	-1.680791884120906	0.1313056284585542	-4.724604698719043	-4.724604698718815	-0.04709850667162905	0.01382105659168947	-1.180736976542136	-0.6563501892826719	-2.64129399807972e-08	-7.00858540460932e-08	1.837480308405142e-07	2.478770813619397e-08	-4.162864251702434e-08	4.417543471829447e-08	-3.500534153578999e-08
1.07	-0.5196239566834489	-0.05025776389326912	0.646849766713107	1.676244508514312	-0.2914465489864348	0.1438078327113783	-0.4363034695478644	1.208786985014398	1.208786985014667	-0.1745017834330587	0.1745198327576165	0.256652742910051	0.01271619626592088	0.09047415118398457	0.006659684084724413	0.1000970207680797	-0.3540229858370259	-0.02321638013176783	-0.117329753676202	0.00314767237074776	-0.3245368241035181	-0.3245368241035423	-0.0001063574300824897	-4.665504190297229e-05	-0.08082941146347887	-0.04470117569983363	-0.366681307182841	0.0305803251252847	-0.0188447175526344	-0.2696820858860618	0.005621819879613837	0.03280188125075609	0.3138560196383804	-42.33807184345459	-7.170492172677652	1.126516667951799	15.0081886831016	-713.6736423064376	-45.9618973437054	-0.6519969456617298	1.394401159622396	0.1157338613396745	1.447240577560303	-5.217313822209446	-0.3123119169234462	-1.701325318875307	0.2363422456822339	-4.697005779824245	-4.697005779809272	0.01914560838954722	-0.008637591304564698	-1.161392667961268	-0.6077924256279686	-3.064438057728694e-08	-8.300785956731969e-08	2.108758849470741e-07	2.792802995180026e-08	-4.790338053664794e-08	4.933330580323421e-08	-4.051227665781215e-08
